<svg width="49" height="49" viewBox="0 0 49 49" fill="none" xmlns="http://www.w3.org/2000/svg">
<circle cx="24.5" cy="24.5" r="23.5" fill="#EFF7FF" stroke="#2D8AE7" stroke-width="2"/>
<path fill-rule="evenodd" clip-rule="evenodd" d="M36.511 17.5091C36.8471 17.8347 37.0359 18.2764 37.0359 18.7369C37.0359 19.1974 36.8471 19.6391 36.511 19.9648L23.0743 32.982C22.8967 33.154 22.6859 33.2905 22.4539 33.3836C22.2218 33.4768 21.9732 33.5247 21.722 33.5247C21.4709 33.5247 21.2222 33.4768 20.9901 33.3836C20.7581 33.2905 20.5473 33.154 20.3697 32.982L13.6938 26.5156C13.5225 26.3554 13.386 26.1638 13.292 25.9519C13.1981 25.74 13.1486 25.5121 13.1466 25.2815C13.1445 25.0509 13.1898 24.8222 13.28 24.6088C13.3701 24.3954 13.5032 24.2015 13.6715 24.0384C13.8399 23.8753 14.04 23.7464 14.2603 23.6591C14.4807 23.5717 14.7167 23.5278 14.9547 23.5298C15.1928 23.5318 15.428 23.5797 15.6467 23.6707C15.8654 23.7617 16.0633 23.8941 16.2286 24.0599L21.7214 29.3812L33.975 17.5091C34.1415 17.3477 34.3391 17.2197 34.5567 17.1323C34.7743 17.045 35.0075 17 35.243 17C35.4785 17 35.7117 17.045 35.9293 17.1323C36.1469 17.2197 36.3446 17.3477 36.511 17.5091Z" fill="#2D8AE7"/>
</svg>
