<svg width="104" height="104" viewBox="0 0 104 104" fill="none" xmlns="http://www.w3.org/2000/svg">
<mask id="mask0_314_980" style="mask-type:luminance" maskUnits="userSpaceOnUse" x="0" y="0" width="104" height="104">
<path d="M52.0008 99.4981C58.2397 99.5058 64.4187 98.2806 70.1827 95.893C75.9466 93.5054 81.182 90.0024 85.5881 85.5853C90.0052 81.1793 93.5082 75.9439 95.8958 70.1799C98.2834 64.4159 99.5085 58.237 99.5008 51.9981C99.5085 45.7592 98.2834 39.5802 95.8958 33.8162C93.5082 28.0523 90.0052 22.8169 85.5881 18.4108C81.182 13.9937 75.9466 10.4907 70.1827 8.10313C64.4187 5.71554 58.2397 4.49039 52.0008 4.49808C45.7619 4.49039 39.583 5.71554 33.819 8.10313C28.055 10.4907 22.8196 13.9937 18.4136 18.4108C13.9965 22.8169 10.4935 28.0523 8.10588 33.8162C5.71828 39.5802 4.49314 45.7592 4.50083 51.9981C4.49314 58.237 5.71828 64.4159 8.10588 70.1799C10.4935 75.9439 13.9965 81.1793 18.4136 85.5853C22.8196 90.0024 28.055 93.5054 33.819 95.893C39.583 98.2806 45.7619 99.5058 52.0008 99.4981Z" fill="white" stroke="white" stroke-width="8.91667" stroke-linejoin="round"/>
<path d="M33.0009 51.9971L47.2509 66.2471L75.7509 37.7471" stroke="black" stroke-width="8.91667" stroke-linecap="round" stroke-linejoin="round"/>
</mask>
<g mask="url(#mask0_314_980)">
<path d="M-4.99963 -5.00098H109V108.999H-4.99963V-5.00098Z" fill="#2D8AE7"/>
</g>
</svg>
