<svg width="180" height="180" viewBox="0 0 180 180" fill="none" xmlns="http://www.w3.org/2000/svg">
<circle cx="90" cy="90" r="88.5" fill="#EFF7FF" stroke="#2D8AE7" stroke-width="3"/>
<path d="M94 47.3867V63.5299C94 64.6002 94.4214 65.6268 95.1716 66.3836C95.9217 67.1405 96.9391 67.5657 98 67.5657H114" stroke="#2D8AE7" stroke-width="6.41667" stroke-linecap="round" stroke-linejoin="round"/>
<path d="M78 120.031H66C63.8783 120.031 61.8434 119.181 60.3431 117.667C58.8429 116.153 58 114.1 58 111.959V55.4583C58 53.3176 58.8429 51.2645 60.3431 49.7508C61.8434 48.2371 63.8783 47.3867 66 47.3867H94L114 67.5657V83.7088" stroke="#2D8AE7" stroke-width="6.41667" stroke-linecap="round" stroke-linejoin="round"/>
<path d="M94 120.031V103.888C94 101.747 94.8429 99.6937 96.3431 98.18C97.8434 96.6663 99.8783 95.8159 102 95.8159C104.122 95.8159 106.157 96.6663 107.657 98.18C109.157 99.6937 110 101.747 110 103.888V120.031M94 111.959H110M122 95.8159V120.031" stroke="#2D8AE7" stroke-width="6.41667" stroke-linecap="round" stroke-linejoin="round"/>
</svg>
