<svg width="180" height="180" viewBox="0 0 180 180" fill="none" xmlns="http://www.w3.org/2000/svg">
<circle cx="90" cy="90" r="88.5" fill="#EFF7FF" stroke="#2D8AE7" stroke-width="3"/>
<path d="M75.8599 114.288C76.8749 115.005 78.0881 115.392 79.3328 115.395C80.5775 115.398 81.7927 115.018 82.8114 114.306C83.7232 113.659 84.4409 112.774 84.8787 111.747L87.6683 103.28C88.3506 101.239 89.5013 99.3851 91.0292 97.8644C92.5571 96.3436 94.4202 95.1982 96.4705 94.5192L104.665 91.8617C105.841 91.4489 106.86 90.6831 107.58 89.67C108.3 88.6569 108.687 87.4463 108.687 86.2052C108.687 84.964 108.3 83.7535 107.58 82.7404C106.86 81.7273 105.841 80.9615 104.665 80.5487L96.3147 77.8688C94.2711 77.1878 92.4138 76.0448 90.8886 74.5295C89.3634 73.0141 88.2117 71.1675 87.5239 69.1347L84.8629 60.9825C84.4491 59.8115 83.6792 58.7979 82.6601 58.0824C81.6373 57.3776 80.4228 57 79.1788 57C77.9347 57 76.7203 57.3776 75.6974 58.0824C74.6604 58.8133 73.881 59.8508 73.4698 61.0476L70.7773 69.2852C70.0932 71.2663 68.9669 73.0673 67.483 74.5528C65.9991 76.0383 64.1962 77.1697 62.2099 77.862L54.0239 80.5083C52.8416 80.9228 51.8187 81.6939 51.0975 82.7143C50.3762 83.7347 49.9927 84.9535 50.0001 86.2011C50.0076 87.4487 50.4057 88.6629 51.139 89.6747C51.8724 90.6864 52.9045 91.4454 54.0916 91.8459L62.1873 94.463C64.2383 95.1484 66.1013 96.2985 67.6296 97.8227C69.1578 99.347 70.3095 101.204 70.9939 103.246L73.6571 111.385C74.0702 112.556 74.8398 113.571 75.8577 114.288M110.655 134.802C111.397 135.325 112.283 135.607 113.192 135.608L113.204 135.615C114.123 135.613 115.02 135.324 115.766 134.789C116.513 134.254 117.072 133.5 117.365 132.632L118.65 128.701C118.913 127.916 119.355 127.203 119.942 126.617C120.529 126.032 121.245 125.59 122.033 125.326L126.073 124.019C126.713 123.794 127.291 123.424 127.763 122.939C128.235 122.453 128.588 121.866 128.794 121.222C128.999 120.578 129.052 119.895 128.948 119.228C128.844 118.56 128.586 117.926 128.194 117.374C127.637 116.597 126.841 116.022 125.926 115.734L121.961 114.456C121.173 114.193 120.457 113.752 119.87 113.167C119.282 112.583 118.839 111.87 118.575 111.086L117.262 107.068C116.959 106.208 116.393 105.464 115.644 104.94C114.895 104.417 114.001 104.139 113.086 104.146C112.17 104.154 111.281 104.446 110.54 104.982C109.8 105.518 109.247 106.271 108.958 107.135L107.667 111.082C107.411 111.854 106.981 112.558 106.41 113.14C105.839 113.722 105.142 114.167 104.372 114.44L100.332 115.748C99.4689 116.049 98.722 116.611 98.1959 117.356C97.6698 118.101 97.3908 118.991 97.3981 119.901C97.4053 120.811 97.6983 121.697 98.2362 122.433C98.774 123.17 99.5297 123.72 100.398 124.008L104.352 125.288C105.142 125.551 105.859 125.994 106.447 126.581C107.035 127.168 107.476 127.884 107.737 128.671L109.051 132.688C109.353 133.542 109.915 134.281 110.655 134.802Z" fill="#2D8AE7"/>
</svg>
