<svg width="180" height="180" viewBox="0 0 180 180" fill="none" xmlns="http://www.w3.org/2000/svg">
<circle cx="90" cy="90" r="88.5" fill="#EFF7FF" stroke="#2D8AE7" stroke-width="3"/>
<path fill-rule="evenodd" clip-rule="evenodd" d="M57.4405 52C56.2628 52 55.1333 52.4678 54.3006 53.3006C53.4678 54.1333 53 55.2628 53 56.4405C53 57.6182 53.4678 58.7476 54.3006 59.5804C55.1333 60.4132 56.2628 60.881 57.4405 60.881H107.766C108.944 60.881 110.073 60.4132 110.906 59.5804C111.739 58.7476 112.207 57.6182 112.207 56.4405C112.207 55.2628 111.739 54.1333 110.906 53.3006C110.073 52.4678 108.944 52 107.766 52H57.4405ZM53 74.2025C53 73.0248 53.4678 71.8953 54.3006 71.0626C55.1333 70.2298 56.2628 69.762 57.4405 69.762H88.524C89.7016 69.762 90.8311 70.2298 91.6639 71.0626C92.4966 71.8953 92.9645 73.0248 92.9645 74.2025C92.9645 75.3802 92.4966 76.5096 91.6639 77.3424C90.8311 78.1751 89.7016 78.643 88.524 78.643H57.4405C56.2628 78.643 55.1333 78.1751 54.3006 77.3424C53.4678 76.5096 53 75.3802 53 74.2025ZM106.286 120.088C110.212 120.088 113.976 118.528 116.752 115.752C119.528 112.976 121.088 109.212 121.088 105.286C121.088 101.36 119.528 97.5954 116.752 94.8196C113.976 92.0437 110.212 90.4843 106.286 90.4843C102.36 90.4843 98.5954 92.0437 95.8196 94.8196C93.0437 97.5954 91.4843 101.36 91.4843 105.286C91.4843 109.212 93.0437 112.976 95.8196 115.752C98.5954 118.528 102.36 120.088 106.286 120.088ZM106.286 128.969C111.224 128.969 115.8 127.459 119.596 124.877L128.311 133.587C128.717 134.023 129.208 134.373 129.752 134.616C130.297 134.858 130.885 134.989 131.481 134.999C132.077 135.01 132.67 134.9 133.223 134.677C133.775 134.453 134.278 134.121 134.699 133.699C135.121 133.278 135.453 132.775 135.677 132.223C135.9 131.67 136.01 131.077 135.999 130.481C135.989 129.885 135.858 129.297 135.616 128.752C135.373 128.208 135.023 127.717 134.587 127.311L125.877 118.596C128.849 114.222 130.271 108.98 129.918 103.704C129.565 98.4287 127.457 93.4229 123.929 89.4845C120.401 85.546 115.657 82.9014 110.451 81.972C105.246 81.0426 99.8798 81.8818 95.2069 84.356C90.534 86.8301 86.8235 90.7969 84.6664 95.6243C82.5093 100.452 82.0297 105.862 83.3041 110.994C84.5785 116.125 87.5335 120.683 91.6984 123.94C95.8633 127.198 100.998 128.968 106.286 128.969ZM57.4405 87.524C56.2628 87.524 55.1333 87.9918 54.3006 88.8245C53.4678 89.6573 53 90.7868 53 91.9645C53 93.1421 53.4678 94.2716 54.3006 95.1044C55.1333 95.9371 56.2628 96.4049 57.4405 96.4049H70.762C71.9397 96.4049 73.0691 95.9371 73.9019 95.1044C74.7346 94.2716 75.2025 93.1421 75.2025 91.9645C75.2025 90.7868 74.7346 89.6573 73.9019 88.8245C73.0691 87.9918 71.9397 87.524 70.762 87.524H57.4405Z" fill="#2D8AE7"/>
</svg>
