<svg width="180" height="180" viewBox="0 0 180 180" fill="none" xmlns="http://www.w3.org/2000/svg">
<circle cx="90" cy="90" r="88.5" fill="#EFF7FF" stroke="#2D8AE7" stroke-width="3"/>
<path fill-rule="evenodd" clip-rule="evenodd" d="M88.426 48.8606C89.8729 48.3032 91.4539 48.2305 92.9433 48.653L93.574 48.8606L119.241 58.771C120.542 59.2735 121.678 60.1464 122.516 61.2881C123.354 62.4298 123.86 63.7932 123.974 65.2194L124 65.8424V86.0898C124 92.2075 122.396 98.2117 119.357 103.469C116.318 108.726 111.956 113.04 106.734 115.957L105.758 116.482L93.4603 122.813C92.7832 123.161 92.0436 123.362 91.2877 123.402C90.5319 123.442 89.7761 123.321 89.0677 123.047L88.5397 122.813L76.2417 116.482C70.9272 113.746 66.4288 109.583 63.2213 104.433C60.0139 99.283 58.2163 93.3369 58.0183 87.2224L58 86.0898V65.8424C58 64.412 58.3946 63.011 59.1379 61.8026C59.8811 60.5941 60.9425 59.6279 62.1983 59.0164L62.7593 58.771L88.426 48.8606ZM103.588 73.1515L86.7283 90.5108L80.2457 83.8359C79.5577 83.128 78.6247 82.7305 77.652 82.7308C76.6794 82.7312 75.7467 83.1293 75.0592 83.8378C74.3716 84.5462 73.9856 85.5068 73.9859 86.5083C73.9863 87.5098 74.373 88.4701 75.061 89.1781L83.8757 98.2541C84.2502 98.6399 84.6949 98.946 85.1844 99.1549C85.6739 99.3637 86.1985 99.4712 86.7283 99.4712C87.2582 99.4712 87.7828 99.3637 88.2723 99.1549C88.7617 98.946 89.2064 98.6399 89.581 98.2541L108.772 78.4899C109.123 78.1417 109.402 77.7251 109.594 77.2644C109.786 76.8038 109.887 76.3084 109.892 75.8071C109.896 75.3058 109.803 74.8087 109.619 74.3447C109.434 73.8807 109.162 73.4592 108.818 73.1047C108.474 72.7502 108.064 72.4699 107.613 72.2801C107.163 72.0902 106.68 71.9947 106.193 71.9991C105.706 72.0034 105.225 72.1076 104.778 72.3054C104.331 72.5033 103.926 72.7909 103.588 73.1515Z" fill="#2D8AE7"/>
</svg>
