<svg width="14" height="22" viewBox="0 0 14 22" fill="none" xmlns="http://www.w3.org/2000/svg">
<path fill-rule="evenodd" clip-rule="evenodd" d="M0.707947 12.613C0.254626 12.1813 0 11.5961 0 10.986C0 10.3758 0.254626 9.79061 0.707947 9.3589L9.83567 0.674046C10.2898 0.242318 10.9056 -0.000143867 11.5477 6.40442e-08C11.8656 7.13315e-05 12.1804 0.0597014 12.4741 0.175486C12.7678 0.291271 13.0346 0.460942 13.2594 0.674813C13.4841 0.888684 13.6624 1.14257 13.784 1.42196C13.9056 1.70136 13.9681 2.0008 13.968 2.30319C13.968 2.60558 13.9053 2.90499 13.7835 3.18433C13.6618 3.46368 13.4834 3.71748 13.2586 3.93125L5.8431 10.986L13.2602 18.0407C13.4915 18.253 13.676 18.507 13.803 18.7878C13.93 19.0687 13.997 19.3707 13.9999 19.6765C14.0028 19.9822 13.9417 20.2854 13.8202 20.5684C13.6986 20.8514 13.519 21.1086 13.2918 21.3249C13.0646 21.5411 12.7944 21.7122 12.497 21.8281C12.1995 21.944 11.8808 22.0024 11.5594 21.9999C11.238 21.9974 10.9203 21.934 10.6249 21.8135C10.3295 21.693 10.0623 21.5177 9.83889 21.2979L0.70472 12.613H0.707947Z" fill="#B4B4B4"/>
</svg>
