<svg width="104" height="104" viewBox="0 0 104 104" fill="none" xmlns="http://www.w3.org/2000/svg">
<mask id="mask0_826_91" style="mask-type:luminance" maskUnits="userSpaceOnUse" x="0" y="0" width="104" height="104">
<path d="M52.001 99.4986C58.2399 99.5063 64.4189 98.2811 70.1828 95.8935C75.9468 93.5059 81.1822 90.0029 85.5883 85.5858C90.0054 81.1798 93.5084 75.9444 95.896 70.1804C98.2836 64.4164 99.5087 58.2375 99.501 51.9986C99.5087 45.7597 98.2836 39.5807 95.896 33.8167C93.5084 28.0528 90.0054 22.8174 85.5883 18.4113C81.1822 13.9942 75.9468 10.4912 70.1828 8.10362C64.4189 5.71602 58.2399 4.49088 52.001 4.49857C45.7621 4.49088 39.5832 5.71602 33.8192 8.10362C28.0552 10.4912 22.8198 13.9942 18.4138 18.4113C13.9966 22.8174 10.4937 28.0528 8.10606 33.8167C5.71846 39.5807 4.49332 45.7597 4.50101 51.9986C4.49332 58.2375 5.71846 64.4164 8.10606 70.1804C10.4937 75.9444 13.9966 81.1798 18.4138 85.5858C22.8198 90.0029 28.0552 93.5059 33.8192 95.8935C39.5832 98.2811 45.7621 99.5063 52.001 99.4986Z" fill="white" stroke="white" stroke-width="8.91667" stroke-linejoin="round"/>
<path d="M33.001 51.9976L47.251 66.2476L75.751 37.7476" stroke="black" stroke-width="8.91667" stroke-linecap="round" stroke-linejoin="round"/>
</mask>
<g mask="url(#mask0_826_91)">
<path d="M-5 -5.00049H109V109H-5V-5.00049Z" fill="#2D8AE7"/>
</g>
</svg>
