<svg width="22" height="16" viewBox="0 0 22 16" fill="none" xmlns="http://www.w3.org/2000/svg">
<path fill-rule="evenodd" clip-rule="evenodd" d="M21.0386 0.492899C21.334 0.808239 21.5 1.23587 21.5 1.68176C21.5 2.12765 21.334 2.55529 21.0386 2.87063L9.22703 15.4745C9.07094 15.6411 8.88562 15.7733 8.68165 15.8634C8.47769 15.9536 8.25908 16 8.03831 16C7.81753 16 7.59892 15.9536 7.39496 15.8634C7.191 15.7733 7.00568 15.6411 6.84959 15.4745L0.981091 9.21348C0.83058 9.05836 0.710528 8.87281 0.627939 8.66765C0.54535 8.4625 0.501878 8.24184 0.500059 8.01857C0.498241 7.79529 0.538113 7.57386 0.617349 7.3672C0.696584 7.16055 0.813597 6.9728 0.961558 6.81491C1.10952 6.65702 1.28547 6.53216 1.47913 6.44761C1.6728 6.36306 1.88031 6.32052 2.08955 6.32246C2.29879 6.3244 2.50558 6.37078 2.69784 6.45891C2.8901 6.54704 3.06399 6.67515 3.20935 6.83575L8.03778 11.9881L18.8093 0.492899C18.9556 0.336638 19.1294 0.212678 19.3207 0.128104C19.5119 0.0435305 19.7169 0 19.924 0C20.131 0 20.336 0.0435305 20.5272 0.128104C20.7185 0.212678 20.8923 0.336638 21.0386 0.492899Z" fill="#2D8AE7"/>
</svg>
