<svg width="21" height="17" viewBox="0 0 21 17" fill="none" xmlns="http://www.w3.org/2000/svg">
<path fill-rule="evenodd" clip-rule="evenodd" d="M20.5386 0.992899C20.834 1.30824 21 1.73587 21 2.18176C21 2.62765 20.834 3.05529 20.5386 3.37063L8.72703 15.9745C8.57094 16.1411 8.38562 16.2733 8.18165 16.3634C7.97769 16.4536 7.75908 16.5 7.53831 16.5C7.31753 16.5 7.09892 16.4536 6.89496 16.3634C6.691 16.2733 6.50568 16.1411 6.34959 15.9745L0.481091 9.71348C0.33058 9.55836 0.210528 9.37281 0.127939 9.16765C0.0453498 8.9625 0.00187775 8.74184 5.9499e-05 8.51857C-0.00175875 8.29529 0.0381133 8.07386 0.117349 7.8672C0.196584 7.66055 0.313597 7.4728 0.461558 7.31491C0.60952 7.15702 0.785467 7.03216 0.979134 6.94761C1.1728 6.86306 1.38031 6.82052 1.58955 6.82246C1.79879 6.8244 2.00558 6.87078 2.19784 6.95891C2.3901 7.04704 2.56399 7.17515 2.70935 7.33575L7.53778 12.4881L18.3093 0.992899C18.4556 0.836638 18.6294 0.712678 18.8207 0.628104C19.0119 0.543531 19.2169 0.5 19.424 0.5C19.631 0.5 19.836 0.543531 20.0272 0.628104C20.2185 0.712678 20.3923 0.836638 20.5386 0.992899Z" fill="#B4B4B4"/>
</svg>
