<svg width="25" height="41" viewBox="0 0 25 41" fill="none" xmlns="http://www.w3.org/2000/svg">
<path fill-rule="evenodd" clip-rule="evenodd" d="M23.7329 17.4333C24.5443 18.24 25 19.3334 25 20.4734C25 21.6134 24.5443 22.7069 23.7329 23.5135L7.39612 39.7406C6.58334 40.5472 5.48112 41.0003 4.33195 41C3.18277 40.9997 2.08077 40.5462 1.26838 39.7392C0.455978 38.9321 -0.000270858 37.8377 -6.75923e-08 36.6966C0.000270723 35.5556 0.457039 34.4614 1.26982 33.6547L14.5449 20.4734L1.26982 7.29211C0.480206 6.48112 0.0429815 5.39463 0.0523138 4.26665C0.061646 3.13868 0.516788 2.05946 1.31971 1.26146C2.12264 0.463455 3.2091 0.0105132 4.34509 0.000182916C5.48108 -0.0101473 6.57572 0.422966 7.39323 1.20623L23.7358 17.4305L23.7329 17.4333Z" fill="#2D8AE7"/>
</svg>
