<svg width="30" height="18" viewBox="0 0 30 18" fill="none" xmlns="http://www.w3.org/2000/svg">
<path fill-rule="evenodd" clip-rule="evenodd" d="M17.2439 17.0877C16.6537 17.6719 15.8536 18 15.0195 18C14.1853 18 13.3852 17.6719 12.795 17.0877L0.921522 5.32521C0.331284 4.74 -0.000196688 3.94641 8.75581e-08 3.119C0.000196863 2.2916 0.332055 1.49816 0.922571 0.913231C1.51309 0.328305 2.31389 -0.000194918 3.14881 8.677e-08C3.98372 0.000195092 4.78437 0.329068 5.37461 0.91427L15.0195 10.4723L24.6643 0.91427C25.2577 0.345749 26.0527 0.0309478 26.8781 0.0376671C27.7034 0.0443863 28.4931 0.372088 29.077 0.950194C29.6609 1.5283 29.9923 2.31055 29.9999 3.12847C30.0074 3.94638 29.6905 4.73452 29.1174 5.32313L17.246 17.0898L17.2439 17.0877Z" fill="#FEFEFE"/>
</svg>
