<svg width="60" height="60" viewBox="0 0 60 60" fill="none" xmlns="http://www.w3.org/2000/svg">
<g clip-path="url(#clip0_314_841)">
<path d="M40 40L30 30L20 40" stroke="#2D8AE7" stroke-width="4" stroke-linecap="round" stroke-linejoin="round"/>
<path d="M30 30V52.5" stroke="#2D8AE7" stroke-width="4" stroke-linecap="round" stroke-linejoin="round"/>
<path d="M50.975 45.9747C53.4134 44.6454 55.3396 42.5419 56.4497 39.9963C57.5598 37.4506 57.7905 34.6078 57.1055 31.9164C56.4205 29.2251 54.8587 26.8385 52.6667 25.1333C50.4746 23.4282 47.7772 22.5015 45 22.4997H41.85C41.0933 19.5728 39.6829 16.8556 37.7249 14.5522C35.7669 12.2488 33.3121 10.4193 30.5453 9.20123C27.7784 7.98313 24.7714 7.40811 21.7503 7.51942C18.7292 7.63073 15.7727 8.42547 13.103 9.84388C10.4332 11.2623 8.1198 13.2675 6.33658 15.7087C4.55335 18.1499 3.34675 20.9636 2.80747 23.9382C2.2682 26.9128 2.41029 29.971 3.22306 32.8829C4.03583 35.7947 5.49813 38.4844 7.50002 40.7497" stroke="#2D8AE7" stroke-width="4" stroke-linecap="round" stroke-linejoin="round"/>
<path d="M40 40L30 30L20 40" stroke="#2D8AE7" stroke-width="4" stroke-linecap="round" stroke-linejoin="round"/>
</g>
<defs>
<clipPath id="clip0_314_841">
<rect width="60" height="60" fill="white"/>
</clipPath>
</defs>
</svg>
