<svg viewBox="0 0 60 60" fill="none" xmlns="http://www.w3.org/2000/svg">
  <path d="M40 40L30 30L20 40" stroke="#2D8AE7" stroke-width="4" stroke-linecap="round" stroke-linejoin="round"/>
  <path d="M30 30V52.5" stroke="#2D8AE7" stroke-width="4" stroke-linecap="round" stroke-linejoin="round"/>
  <path d="M50.9749 45.9747C53.4132 44.6454 55.3395 42.5419 56.4496 39.9963C57.5597 37.4506 57.7904 34.6078 57.1054 31.9164C56.4204 29.2251 54.8586 26.8385 52.6666 25.1333C50.4745 23.4282 47.7771 22.5015 44.9999 22.4997H41.8499C41.0932 19.5728 39.6828 16.8556 37.7248 14.5522C35.7667 12.2488 33.312 10.4193 30.5451 9.20123C27.7783 7.98313 24.7713 7.40811 21.7502 7.51942C18.7291 7.63073 15.7726 8.42547 13.1028 9.84388C10.4331 11.2623 8.11968 13.2675 6.33645 15.7087C4.55323 18.1499 3.34663 20.9636 2.80735 23.9382C2.26807 26.9128 2.41016 29.971 3.22293 32.8829C4.0357 35.7947 5.49801 38.4844 7.4999 40.7497" stroke="#2D8AE7" stroke-width="4" stroke-linecap="round" stroke-linejoin="round"/>
  <path d="M40 40L30 30L20 40" stroke="#2D8AE7" stroke-width="4" stroke-linecap="round" stroke-linejoin="round"/>
</svg>