<svg width="52" height="52" viewBox="0 0 52 52" fill="none" xmlns="http://www.w3.org/2000/svg">
<circle cx="26" cy="26" r="26" fill="#2D8AE7"/>
<path d="M26.3812 15.3643L17.4189 24.3266C17.2421 24.5034 17.1019 24.7132 17.0062 24.9442C16.9106 25.1752 16.8613 25.4227 16.8613 25.6727C16.8613 25.9227 16.9106 26.1703 17.0062 26.4013C17.1019 26.6322 17.2421 26.8421 17.4189 27.0189C17.5957 27.1957 17.8056 27.3359 18.0365 27.4316C18.2675 27.5272 18.5151 27.5765 18.7651 27.5765C19.0151 27.5765 19.2626 27.5272 19.4936 27.4316C19.7246 27.3359 19.9345 27.1957 20.1112 27.0189L24.4772 22.6529V37.097C24.4772 37.602 24.6778 38.0863 25.0349 38.4433C25.392 38.8004 25.8763 39.001 26.3812 39.001C26.8862 39.001 27.3705 38.8004 27.7276 38.4433C28.0847 38.0863 28.2853 37.602 28.2853 37.097V22.6529L32.6512 27.0189C32.8277 27.1963 33.0374 27.3371 33.2684 27.4332C33.4995 27.5293 33.7472 27.5787 33.9974 27.5787C34.2476 27.5787 34.4953 27.5293 34.7264 27.4332C34.9574 27.3371 35.1671 27.1963 35.3436 27.0189C35.7005 26.6618 35.901 26.1776 35.901 25.6727C35.901 25.1678 35.7005 24.6836 35.3436 24.3266L26.3812 15.3643Z" fill="#FEFEFE"/>
</svg>
