<svg width="21" height="21" viewBox="0 0 21 21" fill="none" xmlns="http://www.w3.org/2000/svg">
<path d="M10.5 1.75C5.6875 1.75 1.75 5.6875 1.75 10.5C1.75 12.5125 2.45 14.4375 3.7625 16.0125L2.0125 17.7625C1.6625 18.1125 1.6625 18.6375 2.0125 18.9875C2.1875 19.1625 2.3625 19.25 2.625 19.25H10.5C15.3125 19.25 19.25 15.3125 19.25 10.5C19.25 5.6875 15.3125 1.75 10.5 1.75ZM7 11.375C6.475 11.375 6.125 11.025 6.125 10.5C6.125 9.975 6.475 9.625 7 9.625C7.525 9.625 7.875 9.975 7.875 10.5C7.875 11.025 7.525 11.375 7 11.375ZM10.5 11.375C9.975 11.375 9.625 11.025 9.625 10.5C9.625 9.975 9.975 9.625 10.5 9.625C11.025 9.625 11.375 9.975 11.375 10.5C11.375 11.025 11.025 11.375 10.5 11.375ZM14 11.375C13.475 11.375 13.125 11.025 13.125 10.5C13.125 9.975 13.475 9.625 14 9.625C14.525 9.625 14.875 9.975 14.875 10.5C14.875 11.025 14.525 11.375 14 11.375Z" fill="#B4B4B4"/>
</svg>
