<svg width="28" height="39" viewBox="0 0 28 39" fill="none" xmlns="http://www.w3.org/2000/svg">
<path d="M13.6788 18.5028C12.3831 18.5028 11.1405 18.0012 10.2244 17.1084C9.30821 16.2155 8.79351 15.0046 8.79351 13.742C8.79351 12.4793 9.30821 11.2684 10.2244 10.3755C11.1405 9.48271 12.3831 8.98112 13.6788 8.98112C14.9744 8.98112 16.217 9.48271 17.1332 10.3755C18.0494 11.2684 18.5641 12.4793 18.5641 13.742C18.5641 14.3672 18.4377 14.9862 18.1922 15.5638C17.9467 16.1415 17.5868 16.6663 17.1332 17.1084C16.6796 17.5505 16.141 17.9011 15.5483 18.1404C14.9556 18.3796 14.3203 18.5028 13.6788 18.5028ZM13.6788 0.411621C10.051 0.411621 6.5717 1.81606 4.00643 4.31599C1.44115 6.81591 0 10.2065 0 13.742C0 23.7397 13.6788 38.4983 13.6788 38.4983C13.6788 38.4983 27.3576 23.7397 27.3576 13.742C27.3576 10.2065 25.9164 6.81591 23.3512 4.31599C20.7859 1.81606 17.3066 0.411621 13.6788 0.411621Z" fill="#2D8AE7"/>
</svg>
