<svg width="19" height="19" viewBox="0 0 19 19" fill="none" xmlns="http://www.w3.org/2000/svg">
<path fill-rule="evenodd" clip-rule="evenodd" d="M10.0598 12.4348C9.91135 12.5832 9.71002 12.6666 9.5001 12.6666C9.29018 12.6666 9.08885 12.5832 8.94039 12.4348L4.46193 7.95632C4.38632 7.88329 4.32601 7.79593 4.28452 7.69935C4.24303 7.60276 4.22119 7.49888 4.22028 7.39376C4.21936 7.28864 4.23939 7.1844 4.2792 7.0871C4.31901 6.98981 4.37779 6.90142 4.45212 6.82709C4.52645 6.75276 4.61484 6.69397 4.71214 6.65417C4.80943 6.61436 4.91368 6.59433 5.01879 6.59524C5.12391 6.59616 5.22779 6.618 5.32438 6.65949C5.42097 6.70098 5.50832 6.76129 5.58135 6.8369L9.5001 10.7557L13.4189 6.8369C13.5682 6.69269 13.7681 6.6129 13.9757 6.6147C14.1833 6.6165 14.3818 6.69976 14.5286 6.84654C14.6754 6.99333 14.7587 7.19189 14.7605 7.39946C14.7623 7.60703 14.6825 7.80701 14.5383 7.95632L10.0598 12.4348Z" fill="#B4B4B4"/>
</svg>
