<svg width="22" height="22" viewBox="0 0 22 22" fill="none" xmlns="http://www.w3.org/2000/svg">
<path d="M15.1633 0.910832L13.2339 2.8399L19.1596 8.76461L21.089 6.83554C21.6734 6.25552 22 5.46499 22 4.64009C22 3.81518 21.6734 3.02465 21.089 2.44464L19.555 0.910832C18.9748 0.326525 18.1842 0 17.3591 0C16.5341 0 15.7434 0.326525 15.1633 0.910832ZM11.7772 4.29638L2.52986 13.5379C2.07007 13.9976 1.7349 14.5733 1.55872 15.2006L0.0375464 20.6913C-0.0612868 21.0479 0.0375464 21.4346 0.303966 21.6967C0.570386 21.9588 0.952828 22.0619 1.30949 21.9631L6.80117 20.4379C7.42855 20.2617 8.00006 19.9309 8.46415 19.4669L17.7029 10.2211L11.7772 4.29638Z" fill="#B4B4B4"/>
</svg>
