<svg width="10" height="17" viewBox="0 0 10 17" fill="none" xmlns="http://www.w3.org/2000/svg">
<path fill-rule="evenodd" clip-rule="evenodd" d="M9.61822 7.34485C9.86267 7.57681 10 7.89139 10 8.21939C10 8.5474 9.86267 8.86197 9.61822 9.09394L2.24185 16.0916C2.12156 16.2097 1.97768 16.3039 1.81859 16.3688C1.65951 16.4336 1.4884 16.4677 1.31527 16.4691C1.14213 16.4706 0.970431 16.4393 0.810182 16.3771C0.649933 16.3149 0.504345 16.223 0.381914 16.1069C0.259484 15.9907 0.162663 15.8526 0.0970995 15.7006C0.0315363 15.5486 -0.00145527 15.3857 4.92329e-05 15.2215C0.00155374 15.0572 0.0375246 14.8949 0.105863 14.744C0.174201 14.5931 0.273537 14.4566 0.398077 14.3425L6.85257 8.21939L0.398077 2.09633C0.160554 1.86303 0.0291241 1.55057 0.0320951 1.22623C0.035066 0.901901 0.1722 0.59165 0.41396 0.362304C0.655721 0.132957 0.982765 0.00286513 1.32465 4.67612e-05C1.66654 -0.0027716 1.99592 0.121909 2.24185 0.347236L9.61822 7.34485Z" fill="#B4B4B4"/>
</svg>
