<svg width="67" height="67" viewBox="0 0 67 67" fill="none" xmlns="http://www.w3.org/2000/svg">
<rect x="1" y="1" width="65" height="65" rx="9" fill="#EFF7FF"/>
<rect x="1" y="1" width="65" height="65" rx="9" stroke="#2D8AE7" stroke-width="2"/>
<path fill-rule="evenodd" clip-rule="evenodd" d="M51.231 20.7702C51.7234 21.2629 52 21.9311 52 22.6278C52 23.3245 51.7234 23.9926 51.231 24.4854L31.545 44.1789C31.2849 44.4392 30.976 44.6457 30.6361 44.7866C30.2962 44.9275 29.9318 45 29.5638 45C29.1959 45 28.8315 44.9275 28.4916 44.7866C28.1517 44.6457 27.8428 44.4392 27.5826 44.1789L17.8018 34.3961C17.551 34.1537 17.3509 33.8638 17.2132 33.5432C17.0756 33.2227 17.0031 32.8779 17.0001 32.529C16.9971 32.1801 17.0635 31.8342 17.1956 31.5113C17.3276 31.1884 17.5227 30.895 17.7693 30.6483C18.0159 30.4016 18.3091 30.2065 18.6319 30.0744C18.9547 29.9423 19.3005 29.8758 19.6493 29.8788C19.998 29.8819 20.3426 29.9544 20.6631 30.0921C20.9835 30.2298 21.2733 30.4299 21.5156 30.6809L29.563 38.7313L47.5155 20.7702C47.7594 20.526 48.049 20.3323 48.3678 20.2002C48.6865 20.068 49.0282 20 49.3733 20C49.7183 20 50.06 20.068 50.3787 20.2002C50.6975 20.3323 50.9871 20.526 51.231 20.7702Z" fill="#2D8AE7"/>
</svg>
