<svg width="70" height="70" viewBox="0 0 70 70" fill="none" xmlns="http://www.w3.org/2000/svg">
<rect x="1" y="1" width="67.4457" height="67.4316" rx="9" fill="#EFF7FF"/>
<rect x="1" y="1" width="67.4457" height="67.4316" rx="9" stroke="#2D8AE7" stroke-width="2"/>
<path fill-rule="evenodd" clip-rule="evenodd" d="M43.8562 41.1965C46.1943 38.1821 47.2962 34.3903 46.9378 30.5923C46.5794 26.7944 44.7875 23.2756 41.9268 20.7519C39.066 18.2283 35.3513 16.8892 31.5383 17.0072C27.7253 17.1252 24.1004 18.6914 21.4012 21.3871C18.6996 24.0847 17.1283 27.7109 17.0075 31.5268C16.8867 35.3427 18.2255 39.0611 20.751 41.9242C23.2765 44.7873 26.7988 46.5797 30.5999 46.936C34.4011 47.2924 38.195 46.1859 41.2087 43.8421L41.2893 43.9265L49.2431 51.8821C49.4173 52.0563 49.6241 52.1945 49.8517 52.2888C50.0793 52.3831 50.3233 52.4316 50.5697 52.4316C50.816 52.4316 51.06 52.3831 51.2876 52.2888C51.5152 52.1945 51.722 52.0563 51.8962 51.8821C52.0704 51.7079 52.2086 51.5011 52.3029 51.2735C52.3972 51.0458 52.4457 50.8019 52.4457 50.5555C52.4457 50.3092 52.3972 50.0652 52.3029 49.8376C52.2086 49.61 52.0704 49.4032 51.8962 49.229L43.9406 41.2752L43.8562 41.1965ZM39.9637 24.0402C41.0223 25.0817 41.8643 26.3226 42.441 27.6911C43.0176 29.0596 43.3177 30.5288 43.3237 32.0139C43.3298 33.499 43.0417 34.9705 42.4762 36.3437C41.9107 37.7169 41.0789 38.9645 40.0288 40.0146C38.9786 41.0648 37.731 41.8966 36.3578 42.4621C34.9846 43.0276 33.5131 43.3156 32.028 43.3096C30.5429 43.3035 29.0738 43.0035 27.7052 42.4268C26.3367 41.8502 25.0959 41.0082 24.0543 39.9496C21.9729 37.834 20.8118 34.9817 20.8239 32.0139C20.836 29.0461 22.0203 26.2033 24.1189 24.1047C26.2174 22.0062 29.0602 20.8219 32.028 20.8098C34.9958 20.7977 37.8481 21.9588 39.9637 24.0402Z" fill="#2D8AE7"/>
</svg>
