<svg width="69" height="69" viewBox="0 0 69 69" fill="none" xmlns="http://www.w3.org/2000/svg">
<rect x="1" y="1" width="67" height="67" rx="9" fill="#EFF7FF"/>
<rect x="1" y="1" width="67" height="67" rx="9" stroke="#2D8AE7" stroke-width="2"/>
<path fill-rule="evenodd" clip-rule="evenodd" d="M41.1947 17.1356C41.8136 17.0412 42.4384 16.9959 43.0638 17.0003C43.8368 17.0003 44.4549 17.0594 44.933 17.1356C46.0388 17.3137 46.6591 18.3132 46.6927 19.3212C46.7165 20.0289 46.7433 21.068 46.7627 22.4704C48.1053 22.4906 49.0995 22.5186 49.7771 22.5435C50.743 22.5785 51.6999 23.2263 51.8697 24.3813C51.9441 24.8807 52 25.5262 52 26.3335C52 27.1409 51.9434 27.7864 51.8704 28.2857C51.6999 29.4407 50.743 30.0886 49.7779 30.1236C49.1002 30.1485 48.1053 30.1765 46.7627 30.1967C46.7495 31.2467 46.7261 32.2965 46.6927 33.3459C46.6591 34.3539 46.0388 35.3534 44.933 35.5315C44.4549 35.6077 43.8368 35.6668 43.0638 35.6668C42.2909 35.6668 41.6728 35.6077 41.1947 35.5315C40.0888 35.3534 39.4685 34.3539 39.435 33.3459C39.4112 32.6382 39.3844 31.5991 39.365 30.1967C38.36 30.1829 37.3551 30.1586 36.3505 30.1236C35.3847 30.0886 34.4278 29.4407 34.258 28.2857C34.167 27.6394 34.1235 26.9868 34.1277 26.3335C34.1277 25.5262 34.1843 24.8807 34.2572 24.3813C34.4278 23.2263 35.3847 22.5785 36.3498 22.5435C37.0274 22.5186 38.0223 22.4906 39.365 22.4704C39.3844 21.068 39.4112 20.0297 39.435 19.3219C39.4685 18.3132 40.0888 17.3129 41.1947 17.1356ZM18.715 36.3458C18.3261 36.4725 17.9817 36.7163 17.7249 37.0465C17.468 37.3768 17.3102 37.7788 17.2711 38.2023C17.1497 39.481 17 41.4628 17 43.4445C17 45.2847 17.1296 47.1257 17.245 48.4028C17.2899 48.8929 17.4901 49.3533 17.8138 49.7111C18.1376 50.0689 18.5663 50.3037 19.0322 50.3783C22.1837 50.908 29.3059 52 34.3384 52C38.1482 52 45.7707 49.3214 49.3348 47.9859C50.4957 47.5504 51.3491 46.3627 50.9723 45.1369C50.4667 43.4958 49.3936 42.8736 48.6519 42.638C48.1455 42.477 47.6146 42.5423 47.0933 42.6364C44.6545 43.079 37.154 44.395 34.3384 44.395C33.0106 44.395 31.1981 44.1414 30.1369 43.9726C29.8925 43.9323 29.6701 43.8018 29.5098 43.6049C29.3496 43.408 29.2622 43.1577 29.2634 42.8993C29.2634 42.2537 29.7906 41.7466 30.4065 41.7987L36.1517 42.2887C37.4527 42.3992 38.5972 41.3111 38.2994 39.9834C38.14 39.2702 37.927 38.6768 37.7155 38.2023C37.2732 37.2122 36.3505 36.6188 35.337 36.3466C33.2445 35.7842 29.3632 34.889 25.8796 34.889C23.5599 34.889 20.4441 35.7835 18.715 36.3458Z" fill="#2D8AE7"/>
</svg>
