<svg width="1434" height="329" viewBox="0 0 1434 329" fill="none" xmlns="http://www.w3.org/2000/svg">
<path d="M136.58 61.82C136.58 68.11 136.21 74.03 135.47 79.96L203.94 126.97L162.49 179.9L106.23 141.41C88.83 158.81 64.41 171.76 32.94 179.9L0 124.01C19.99 119.94 35.53 112.9 47.38 102.91C58.85 93.29 64.78 79.22 64.78 61.45V0.75H136.59V61.82H136.58ZM247.62 195.81V205.8C247.62 213.94 246.51 221.35 244.29 228.75L390.49 262.8L360.14 323.13L200.24 282.42C183.58 292.78 162.86 301.67 138.06 308.7C112.89 315.36 83.65 320.17 49.97 323.14L25.91 263.55C48.12 262.07 68.48 259.11 86.61 255.41C104.38 252.08 119.92 248.01 132.51 242.82C144.72 238.01 154.35 232.46 161.01 225.79C167.67 219.87 171 212.83 171 205.43V195.81H247.62ZM212.83 180.27V88.11L167.67 98.1V31.84L212.83 21.85V0.75H284.64V180.27H212.83ZM372.73 203.22H300.55V0.75H372.73V203.22Z" fill="#2D8AE7"/>
<path d="M603.31 4.45001V175.08H414.91V4.45001H487.46V35.17H530.77V4.45001H603.32H603.31ZM571.48 328.69C547.79 328.69 527.07 327.21 508.93 324.62C490.42 321.66 475.25 317.59 462.66 312.41C450.07 306.49 440.45 299.45 433.79 290.94C427.13 282.06 423.8 271.32 423.8 259.11C423.8 246.9 427.13 236.53 433.79 227.65C440.45 219.14 450.08 212.1 462.66 206.18C475.25 200.63 490.42 196.56 508.93 193.59C527.07 191.37 547.79 189.89 571.48 189.89C595.17 189.89 615.53 191.37 634.04 193.59C652.18 196.55 667.72 200.62 680.31 206.18C692.9 212.1 702.52 219.13 709.18 227.65C715.84 236.53 719.17 247.27 719.17 259.11C719.17 270.95 715.84 282.06 709.18 290.94C702.52 299.45 692.89 306.49 680.31 312.41C667.72 317.59 652.18 321.66 634.04 324.62C615.53 327.21 594.43 328.69 571.48 328.69ZM530.76 118.82V91.43H487.45V118.82H530.76ZM571.48 276.13C592.95 276.13 610.35 274.65 623.3 272.06C635.89 269.47 642.55 265.03 642.55 259.11C642.55 253.19 635.89 249.11 623.3 246.15C610.35 243.56 592.95 242.08 571.48 242.08C550.01 242.08 532.25 243.56 519.66 246.15C506.7 249.11 500.41 253.18 500.41 259.11C500.41 265.04 506.7 269.47 519.66 272.06C532.25 274.65 549.64 276.13 571.48 276.13ZM711.76 115.12V184.34H635.14V0.75H711.76V51.46H743.96V115.12H711.76Z" fill="#2D8AE7"/>
<path d="M902.74 43.31C902.74 46.27 902.37 49.23 902.37 52.19C902 55.15 901.63 58.11 901.26 60.7L977.51 104.75L936.05 157.68L867.95 118.44C847.22 136.21 817.98 149.53 780.6 157.68L747.66 101.79C772.46 97.35 791.71 90.32 805.77 79.95C819.09 70.33 826.13 57.74 826.13 42.94V0H902.75V43.31H902.74ZM990.46 224.31V213.21H785.77V170.27H1067.08V267.25H862.39V278.35H1070.78V321.29H785.77V224.31H990.46ZM1067.08 107.72V157.32H990.46V0.75H1067.08V44.06H1099.28V107.72H1067.08Z" fill="#2D8AE7"/>
<path d="M1332.83 159.17C1332.83 189.15 1329.5 213.95 1323.58 233.57C1316.92 253.56 1308.78 269.47 1298.78 281.32C1288.42 293.16 1276.57 301.31 1263.62 306.49C1250.3 311.3 1236.97 313.89 1223.65 313.89C1209.59 313.89 1196.26 311.3 1183.3 306.49C1169.98 301.31 1158.5 293.16 1148.51 281.32C1138.15 269.47 1129.63 253.56 1123.71 233.57C1117.42 213.95 1114.46 189.15 1114.46 159.17C1114.46 129.19 1117.42 104.39 1123.71 84.4C1129.63 64.78 1138.15 48.87 1148.51 37.02C1158.5 25.18 1169.98 17.03 1183.3 11.85C1196.26 7.04001 1209.58 4.45001 1223.65 4.45001C1236.97 4.45001 1250.3 7.04001 1263.62 11.85C1276.58 17.03 1288.42 25.17 1298.78 37.02C1308.78 48.87 1316.92 64.78 1323.58 84.4C1329.5 104.39 1332.83 129.56 1332.83 159.17ZM1190.69 159.17C1190.69 178.42 1191.43 193.59 1193.28 205.44C1194.76 217.28 1197.35 226.54 1200.68 233.2C1203.64 239.86 1206.97 244.3 1211.04 246.52C1214.74 249.11 1219.19 250.22 1223.63 250.22C1227.7 250.22 1231.77 249.11 1235.84 246.52C1239.54 244.3 1243.24 239.86 1246.2 233.2C1249.16 226.91 1251.38 217.65 1253.6 205.44C1255.08 193.59 1256.19 178.05 1256.19 158.8C1256.19 139.55 1255.08 124.38 1253.6 112.53C1251.38 100.68 1249.16 91.43 1246.2 84.77C1243.24 78.48 1239.54 74.03 1235.84 71.45C1231.77 69.23 1227.7 68.12 1223.63 68.12C1219.19 68.12 1214.75 69.23 1211.04 71.45C1206.97 74.04 1203.64 78.48 1200.68 85.14C1197.35 91.8 1194.76 101.06 1193.28 112.9C1191.43 124.75 1190.69 140.29 1190.69 159.17ZM1433.5 313.89H1356.88V0.75H1433.5V313.89Z" fill="#2D8AE7"/>
</svg>
