<svg width="71" height="67" viewBox="0 0 71 67" fill="none" xmlns="http://www.w3.org/2000/svg">
<path d="M32.7362 8.32237C33.6602 5.61393 37.4908 5.61394 38.4148 8.32237L42.7798 21.1166C43.1942 22.3314 44.3356 23.1479 45.6191 23.1479H59.421C62.3625 23.1479 63.5469 26.9412 61.128 28.6149L50.2179 36.1641C49.1148 36.9274 48.6525 38.3302 49.0856 39.5998L53.3116 51.9868C54.2459 54.7252 51.1446 57.0688 48.7653 55.4225L37.2825 47.477C36.2555 46.7664 34.8956 46.7664 33.8685 47.477L22.3857 55.4225C20.0064 57.0688 16.9052 54.7252 17.8394 51.9868L22.0654 39.5998C22.4986 38.3302 22.0362 36.9274 20.9331 36.1641L10.023 28.6149C7.60413 26.9412 8.78854 23.1479 11.73 23.1479H25.5319C26.8155 23.1479 27.9568 22.3314 28.3713 21.1166L32.7362 8.32237Z" fill="#D9D9D9"/>
</svg>
