<svg width="71" height="67" viewBox="0 0 71 67" fill="none" xmlns="http://www.w3.org/2000/svg">
<path d="M32.5355 8.32237C33.4595 5.61393 37.2901 5.61394 38.2141 8.32237L42.5791 21.1166C42.9935 22.3314 44.1349 23.1479 45.4184 23.1479H59.2203C62.1618 23.1479 63.3462 26.9412 60.9273 28.6149L50.0172 36.1641C48.9141 36.9274 48.4518 38.3302 48.8849 39.5998L53.1109 51.9868C54.0452 54.7252 50.9439 57.0688 48.5646 55.4225L37.0819 47.477C36.0548 46.7664 34.6949 46.7664 33.6678 47.477L22.1851 55.4225C19.8058 57.0688 16.7045 54.7252 17.6387 51.9868L21.8647 39.5998C22.2979 38.3302 21.8355 36.9274 20.7325 36.1641L9.82232 28.6149C7.40345 26.9412 8.58786 23.1479 11.5293 23.1479H25.3313C26.6148 23.1479 27.7561 22.3314 28.1706 21.1166L32.5355 8.32237Z" fill="#F9C75B"/>
</svg>
