<svg width="72" height="67" viewBox="0 0 72 67" fill="none" xmlns="http://www.w3.org/2000/svg">
<path d="M33.1359 8.32237C34.0599 5.61393 37.8905 5.61394 38.8145 8.32237L43.1794 21.1166C43.5939 22.3314 44.7352 23.1479 46.0187 23.1479H59.8207C62.7621 23.1479 63.9466 26.9412 61.5277 28.6149L50.6175 36.1641C49.5145 36.9274 49.0521 38.3302 49.4853 39.5998L53.7113 51.9868C54.6455 54.7252 51.5443 57.0688 49.1649 55.4225L37.6822 47.477C36.6551 46.7664 35.2952 46.7664 34.2681 47.477L22.7854 55.4225C20.4061 57.0688 17.3048 54.7252 18.2391 51.9868L22.4651 39.5998C22.8982 38.3302 22.4359 36.9274 21.3328 36.1641L10.4227 28.6149C8.00379 26.9412 9.1882 23.1479 12.1297 23.1479H25.9316C27.2151 23.1479 28.3565 22.3314 28.7709 21.1166L33.1359 8.32237Z" fill="#D9D9D9"/>
<path d="M33.2752 8.61334C33.8055 7.05886 35.2932 6.39811 36.6394 6.62799V47.2823C35.8765 47.1469 35.0726 47.3079 34.408 47.7676L22.9246 55.713C20.5453 57.3592 17.4445 55.0158 18.3787 52.2774L22.6043 39.8907C23.0374 38.6212 22.5754 37.2184 21.4724 36.4551L10.5623 28.9053C8.14362 27.2315 9.3279 23.4385 12.2693 23.4385H26.0711C27.3546 23.4385 28.4965 22.6221 28.9109 21.4073L33.2752 8.61334Z" fill="#F9C75B"/>
</svg>
