<svg width="60" height="60" viewBox="0 0 60 60" fill="none" xmlns="http://www.w3.org/2000/svg">
<g clip-path="url(#clip0_379_2386)">
<path d="M40 40L30 30L20 40" stroke="#2D8AE7" stroke-width="4" stroke-linecap="round" stroke-linejoin="round"/>
<path d="M30 30V52.5" stroke="#2D8AE7" stroke-width="4" stroke-linecap="round" stroke-linejoin="round"/>
<path d="M50.975 45.9752C53.4134 44.6459 55.3396 42.5424 56.4497 39.9968C57.5598 37.4511 57.7905 34.6083 57.1055 31.9169C56.4205 29.2256 54.8587 26.839 52.6667 25.1338C50.4746 23.4287 47.7772 22.502 45 22.5002H41.85C41.0933 19.5733 39.6829 16.856 37.7249 14.5527C35.7669 12.2493 33.3121 10.4198 30.5453 9.20172C27.7784 7.98362 24.7714 7.4086 21.7503 7.51991C18.7292 7.63122 15.7727 8.42595 13.103 9.84437C10.4332 11.2628 8.1198 13.268 6.33658 15.7092C4.55335 18.1504 3.34675 20.964 2.80747 23.9387C2.2682 26.9133 2.41029 29.9715 3.22306 32.8834C4.03583 35.7952 5.49813 38.4849 7.50002 40.7502" stroke="#2D8AE7" stroke-width="4" stroke-linecap="round" stroke-linejoin="round"/>
<path d="M40 40L30 30L20 40" stroke="#2D8AE7" stroke-width="4" stroke-linecap="round" stroke-linejoin="round"/>
</g>
<defs>
<clipPath id="clip0_379_2386">
<rect width="60" height="60" fill="white"/>
</clipPath>
</defs>
</svg>
